<svg xmlns="http://www.w3.org/2000/svg" version="1.1" xmlns:xlink="http://www.w3.org/1999/xlink" xmlns:svgjs="http://svgjs.dev/svgjs" width="1000" height="1000" viewBox="0 0 1000 1000"><rect width="1000" height="1000" fill="#ffffff"></rect><g transform="matrix(0.41395623891188643,0,0,0.41395623891188643,292.5885411691522,150.28340080971657)"><svg viewBox="0 0 146 247" data-background-color="#ffffff" preserveAspectRatio="xMidYMid meet" height="1691" width="1000" xmlns="http://www.w3.org/2000/svg" xmlns:xlink="http://www.w3.org/1999/xlink"><g id="tight-bounds" transform="matrix(1,0,0,1,0.1528363213038233,-0.09999999999999432)"><svg viewBox="0 0 145.69432735739232 247.2" height="247.2" width="145.69432735739232"><g><svg viewBox="0 0 145.69432735739232 247.2" height="247.2" width="145.69432735739232"><g><svg viewBox="0 0 145.69432735739232 247.2" height="247.2" width="145.69432735739232"><g id="textblocktransform"><svg viewBox="0 0 145.69432735739232 247.2" height="247.2" width="145.69432735739232" id="textblock"><g><svg viewBox="0 0 145.69432735739232 247.2" height="247.2" width="145.69432735739232"><rect width="145.69432735739232" height="247.2" x="0" y="0" opacity="1" fill="#bb84e8" data-fill-palette-color="tertiary"></rect><g transform="matrix(1,0,0,1,23.607599999999998,23.607599999999998)"><svg width="98.47912735739233" viewBox="1.9000000953674316 -42.95000076293945 21.149999618530273 42.95000076293945" height="199.9848" data-palette-color="#ffffff"><path d="M10.45 0L1.9 0 1.9-42.95 10.45-42.95 10.45-27.6 14.5-27.6 14.5-42.95 23.05-42.95 23.05 0 14.5 0 14.5-19.5 10.45-19.5 10.45 0Z" opacity="1" transform="matrix(1,0,0,1,0,0)" fill="#ffffff" class="undefined-text-0" data-fill-palette-color="quaternary" id="text-0"></path></svg></g></svg></g></svg></g></svg></g></svg></g><defs></defs></svg><rect width="145.69432735739232" height="247.2" fill="none" stroke="none" visibility="hidden"></rect></g></svg></g></svg>